<svg xmlns="http://www.w3.org/2000/svg" viewBox="0 0 120 120" width="120" height="120">
  <rect width="120" height="120" rx="16" fill="#FFF0F5"/>
  
  <path d="M60 25 C28 25 15 52 15 65 C15 85 35 95 60 78 C85 95 105 85 105 65 C105 52 92 25 60 25Z" fill="#DC143C"/>
  <path d="M60 30 C32 30 20 53 20 65 C20 82 38 92 60 76 C82 92 100 82 100 65 C100 53 88 30 60 30Z" fill="#FF69B4"/>
  <text x="60" y="68" text-anchor="middle" font-family="Georgia,serif" font-size="22" font-style="italic" font-weight="bold" fill="white">R</text>
  <text x="60" y="108" text-anchor="middle" font-family="monospace" font-size="11" font-weight="bold" fill="#DC143C">LOVE-R</text>

</svg>